<?xml version="1.0" standalone="no"?>
<!DOCTYPE svg PUBLIC "-//W3C//DTD SVG 20010904//EN"
 "http://www.w3.org/TR/2001/REC-SVG-20010904/DTD/svg10.dtd">
<svg version="1.0" xmlns="http://www.w3.org/2000/svg"
 width="2048.000000pt" height="1152.000000pt" viewBox="0 0 2048.000000 1152.000000"
 preserveAspectRatio="xMidYMid meet">

<g transform="translate(0.000000,1152.000000) scale(0.100000,-0.100000)"
fill="#000000" stroke="none">
<path d="M0 5760 l0 -5760 10240 0 10240 0 0 5760 0 5760 -10240 0 -10240 0 0
-5760z m6576 2989 c54 -17 78 -53 84 -122 l5 -62 105 -17 c58 -9 157 -26 220
-37 200 -35 413 -62 421 -54 4 5 16 30 26 57 28 76 97 103 195 76 56 -16 88
-60 88 -122 0 -43 5 -57 34 -92 37 -46 60 -88 69 -126 8 -37 13 -618 5 -626
-9 -9 -391 -5 -399 4 -4 4 -19 45 -34 92 -15 47 -29 86 -30 88 -1 1 -22 -9
-46 -23 -56 -32 -133 -34 -189 -5 -32 16 -68 57 -96 108 0 1 -41 9 -90 17
l-89 14 -30 -29 c-38 -36 -74 -50 -132 -50 -54 0 -105 22 -137 61 -14 16 -29
29 -33 29 -5 0 -44 -47 -87 -105 -43 -57 -91 -116 -107 -130 -54 -45 -133 -53
-199 -19 -57 29 -120 120 -120 173 0 11 34 132 77 268 42 136 75 262 74 279
-1 20 7 40 21 56 13 15 35 44 51 65 15 21 47 52 72 68 35 24 48 40 61 80 20
61 30 72 80 90 39 14 70 13 130 -6z m2044 -86 c0 -13 -20 -39 -20 -28 -1 6 -7
-5 -15 -23 -13 -29 -13 -34 3 -50 10 -10 23 -17 28 -15 6 2 35 -8 66 -22 59
-27 90 -68 67 -89 -9 -8 -10 -7 -6 7 6 15 -6 24 -67 52 -74 33 -116 67 -116
92 0 16 42 83 53 83 4 0 7 -3 7 -7z m-3389 -161 c83 -40 154 -108 209 -201 24
-40 53 -76 65 -81 30 -11 72 -63 80 -98 8 -37 -14 -101 -41 -119 -20 -13 -25
-7 -120 153 -110 186 -159 239 -252 274 -45 17 -72 21 -127 18 -83 -6 -120
-23 -191 -90 -72 -68 -106 -146 -106 -243 1 -89 9 -108 126 -305 77 -131 84
-146 69 -157 -23 -18 -68 -16 -104 2 -41 22 -69 71 -69 123 0 28 -7 54 -20 72
-11 16 -35 59 -53 97 -30 63 -32 75 -32 173 0 97 2 110 32 172 38 81 106 157
178 197 76 43 110 51 206 47 71 -3 97 -9 150 -34z m3483 -97 c-18 -27 -34 -33
-34 -12 0 10 14 21 48 36 1 0 -5 -10 -14 -24z m-68 -65 c0 -11 -4 -20 -8 -20
-4 0 -8 9 -8 20 0 11 4 20 8 20 4 0 8 -9 8 -20z m440 -5 c-3 -8 -1 -15 5 -15
5 0 12 6 15 14 7 19 54 13 71 -10 15 -20 18 -70 4 -78 -9 -6 -24 30 -22 52 2
14 -25 16 -34 2 -4 -6 -10 -8 -15 -5 -5 3 -12 1 -15 -5 -5 -8 -11 -8 -20 0 -8
7 -19 9 -25 5 -5 -3 -10 1 -10 9 0 9 -4 16 -10 16 -5 0 -10 4 -10 9 0 4 11 6
25 3 15 -2 25 0 25 7 0 6 5 11 11 11 6 0 9 -7 5 -15z m-96 -17 c-1 -20 -2 -21
-11 -6 -6 11 -16 15 -26 11 -11 -4 -14 -3 -9 5 13 22 46 14 46 -10z m-82 0
c-6 -16 -60 -30 -71 -19 -16 16 3 31 39 31 23 0 34 -4 32 -12z m-168 -34 c0
-8 -4 -14 -9 -14 -14 0 -23 -52 -12 -63 17 -17 13 -27 -9 -27 -14 0 -20 7 -21
23 l0 22 -9 -23 c-5 -12 -7 -28 -4 -36 3 -8 1 -16 -3 -19 -15 -10 -324 -58
-346 -55 -18 2 -22 9 -21 38 0 19 -4 38 -10 42 -7 5 -7 8 2 8 6 0 12 9 12 20
0 11 -7 20 -15 20 -8 0 -15 -9 -15 -20 l0 -20 -20 20 c-23 23 -25 32 -7 29 6
-2 37 3 67 10 87 20 324 58 333 54 4 -2 7 -17 7 -34 0 -16 5 -29 10 -29 6 0
10 12 10 26 0 29 26 55 47 47 7 -3 13 -11 13 -19z m50 11 c-1 -5 7 -12 17 -16
10 -3 18 -16 18 -30 0 -14 7 -25 18 -27 13 -3 17 3 17 25 1 27 1 27 16 8 14
-19 15 -19 20 3 4 12 11 22 16 22 10 0 6 -28 -11 -73 -14 -36 -55 -43 -97 -17
-31 20 -34 25 -34 72 0 31 4 48 11 46 6 -2 10 -8 9 -13z m185 -37 c4 -24 11
-50 15 -58 12 -24 19 -115 10 -130 -5 -8 -14 -10 -26 -5 -11 4 -30 7 -43 6
-13 -2 -21 2 -17 7 9 15 -23 23 -44 12 -10 -5 -21 -17 -24 -26 -5 -13 -9 -15
-18 -6 -9 9 -16 8 -27 -2 -14 -13 -19 -12 -36 1 -13 10 -14 14 -4 10 20 -7 80
39 73 57 -3 9 6 13 30 14 18 1 40 3 47 4 8 2 13 -5 13 -14 -1 -10 3 -15 8 -12
6 4 15 0 20 -7 7 -10 8 -4 4 20 -3 18 -6 40 -6 47 0 8 -7 14 -15 14 -8 0 -15
5 -15 10 0 6 5 10 11 10 7 0 10 12 7 33 -6 39 -1 57 17 57 8 0 16 -17 20 -42z
m97 18 c5 -8 24 -12 66 -15 14 -1 16 -49 3 -70 -6 -9 -11 -10 -15 -2 -4 6 -12
9 -17 6 -5 -4 -19 1 -31 9 -12 9 -29 16 -36 16 -29 0 -54 45 -35 63 9 10 56 4
65 -7z m206 -48 c12 -10 17 -48 6 -48 -3 0 -14 5 -25 11 -16 8 -25 7 -39 -6
-22 -19 -40 -12 -40 15 0 41 60 58 98 28z m-515 -46 c8 -10 7 -16 -3 -22 -20
-12 -27 3 -21 47 4 31 6 33 9 13 2 -14 9 -31 15 -38z m-3336 -103 l82 -140
-46 -30 c-26 -16 -51 -28 -57 -26 -8 3 -88 131 -146 235 l-24 42 24 18 c23 16
69 40 80 41 3 0 42 -62 87 -140z m2828 93 c14 -14 23 -32 21 -41 -2 -9 -7 -28
-10 -43 -8 -35 -25 -37 -18 -3 3 20 1 24 -12 19 -17 -7 -23 11 -6 21 13 8 1
35 -16 35 -8 0 -14 -7 -14 -16 0 -11 -5 -14 -16 -10 -9 4 -23 1 -30 -5 -21
-17 -18 7 6 46 24 38 55 38 95 -3z m926 -27 c20 13 7 -14 -27 -58 -40 -51 -46
-54 -64 -32 -14 17 1 47 49 98 25 27 26 28 29 8 2 -12 8 -19 13 -16z m-371 8
c0 -25 -30 -53 -57 -53 -14 0 -21 -4 -18 -10 3 -5 1 -10 -4 -10 -6 0 -11 5
-11 11 0 7 -8 18 -17 25 -17 13 -17 15 2 29 12 10 21 12 23 5 5 -15 39 -12 46
5 7 20 36 19 36 -2z m500 -3 c12 -8 11 -10 -7 -10 -13 0 -23 5 -23 10 0 13 11
13 30 0z m-1190 -15 c-6 -8 -9 -19 -5 -24 3 -7 0 -8 -9 -5 -12 5 -13 9 -3 25
6 10 16 19 21 19 4 0 3 -7 -4 -15z m1138 -1 c12 -8 22 -24 22 -34 0 -10 6 -21
13 -24 6 -2 2 -4 -10 -2 -27 3 -77 51 -68 66 8 14 17 13 43 -6z m-568 -30 c0
-10 -6 -14 -15 -10 -9 3 -15 0 -15 -9 0 -8 -5 -15 -11 -15 -5 0 -7 6 -3 13 22
39 44 49 44 21z m645 -5 c11 -17 0 -20 -21 -4 -17 13 -17 14 -2 15 9 0 20 -5
23 -11z m-1108 -26 c15 -20 17 -123 3 -123 -5 0 -10 4 -10 9 0 14 -35 19 -55
8 -29 -16 -55 -41 -55 -53 0 -6 -9 -19 -21 -30 -20 -18 -21 -18 -40 6 -10 14
-16 31 -14 38 3 8 5 22 5 32 0 10 7 26 16 35 15 15 19 15 32 1 13 -13 13 -16
-2 -31 -18 -18 -21 -51 -6 -60 6 -3 13 2 17 12 4 10 10 20 13 23 4 3 4 30 0
60 -7 48 -5 58 14 78 17 19 28 23 56 18 19 -3 41 -13 47 -23z m275 -41 l-10
-29 42 8 c63 12 86 11 86 -6 0 -8 5 -15 11 -15 7 0 9 9 5 23 -4 19 0 26 20 35
44 21 72 15 89 -19 17 -32 14 -59 -5 -59 -6 0 -8 5 -5 10 11 18 -5 32 -21 19
-11 -9 -11 -15 -3 -25 8 -10 4 -22 -18 -51 -15 -21 -32 -41 -37 -44 -5 -4 -6
-23 -2 -44 7 -33 5 -36 -13 -30 -10 3 -22 1 -26 -5 -11 -18 -23 -11 -28 17 -7
39 9 66 35 57 13 -4 18 -2 14 4 -4 6 9 23 27 37 27 22 32 32 29 57 -3 20 -9
28 -21 26 -9 -2 -15 -11 -13 -22 3 -15 -3 -17 -32 -15 -19 2 -38 0 -42 -4 -4
-4 -15 -7 -25 -7 -13 0 -17 5 -13 18 4 11 -1 8 -14 -8 -12 -14 -24 -21 -28
-17 -4 4 -13 2 -19 -3 -9 -8 -14 -2 -19 22 -3 18 -2 34 4 38 15 9 24 67 11 74
-6 4 -11 12 -11 19 0 6 10 2 21 -10 18 -18 20 -26 11 -51z m116 40 c3 -20 0
-22 -22 -16 -15 3 -32 1 -41 -6 -16 -13 -35 -6 -35 14 0 23 25 37 60 34 28 -2
36 -8 38 -26z m-160 -10 c6 -9 12 -20 12 -25 0 -4 -6 -5 -12 0 -14 9 -20 10
-47 12 -14 1 -18 6 -14 21 6 24 39 19 61 -8z m-368 5 c0 -7 -7 -22 -15 -33
-14 -18 -14 -18 -15 7 0 14 3 29 7 32 11 11 23 8 23 -6z m220 -7 c0 -5 -4 -10
-10 -10 -5 0 -10 5 -10 10 0 6 5 10 10 10 6 0 10 -4 10 -10z m52 -10 c10 -11
13 -22 8 -25 -6 -4 -10 -15 -10 -25 0 -17 3 -18 25 -8 19 8 28 8 40 -2 23 -19
18 -33 -6 -16 -19 13 -24 13 -44 0 -27 -18 -31 -14 -40 49 -8 51 0 59 27 27z
m658 -10 c0 -5 -4 -10 -10 -10 -5 0 -10 5 -10 10 0 6 5 10 10 10 6 0 10 -4 10
-10z m56 -5 c7 -17 -44 -125 -59 -125 -5 0 -15 8 -22 17 -10 13 -8 23 8 52 39
68 62 86 73 56z m214 0 c0 -8 -7 -15 -15 -15 -8 0 -15 7 -15 15 0 8 7 15 15
15 8 0 15 -7 15 -15z m55 5 c9 -15 -3 -30 -20 -24 -23 9 -27 34 -5 34 10 0 22
-4 25 -10z m-462 -7 c-7 -2 -13 -11 -13 -19 0 -16 -26 -19 -36 -3 -3 6 -17 8
-30 5 -13 -4 -24 -2 -24 3 0 5 15 12 33 14 48 6 84 6 70 0z m406 -67 c25 -39
30 -91 12 -124 -14 -26 -24 -28 -42 -6 -10 12 -10 20 -1 35 10 15 9 25 -3 49
-9 17 -20 30 -25 30 -15 0 -12 17 6 34 22 23 30 20 53 -18z m-4252 -113 l82
-138 -27 -22 c-15 -13 -39 -27 -54 -32 -27 -10 -29 -8 -108 126 -44 74 -80
138 -80 140 0 12 78 61 100 63 3 0 42 -62 87 -137z m4093 122 c7 -9 10 -18 6
-22 -3 -3 -6 -1 -6 6 0 6 -10 16 -22 21 -16 6 -18 9 -7 9 9 1 22 -6 29 -14z
m213 3 c5 -18 -3 -48 -14 -48 -5 0 -9 14 -9 30 0 30 15 41 23 18z m-432 -34
c20 -32 21 -42 12 -77 -7 -26 -8 -49 -2 -64 14 -36 11 -52 -8 -52 -10 -1 -35
-4 -55 -7 -30 -5 -38 -3 -38 9 0 8 -3 22 -6 30 -4 11 4 17 25 22 47 10 51 28
6 23 -34 -4 -39 -2 -50 26 -14 34 -9 90 9 105 12 9 40 18 68 20 9 0 26 -15 39
-35z m-3293 -33 c17 -32 32 -68 32 -80 0 -24 -2 -25 -209 -147 -138 -81 -157
-90 -168 -75 -21 27 -15 35 54 75 60 35 67 37 79 22 11 -15 20 -12 99 36 51
31 91 62 96 75 6 16 0 37 -22 78 -16 31 -27 60 -24 65 13 22 32 7 63 -49z
m3592 34 c18 -22 26 -131 10 -150 -18 -22 -26 -19 -49 19 -24 38 -30 131 -8
139 22 9 34 7 47 -8z m-565 -25 c3 -5 1 -10 -4 -10 -6 0 -11 5 -11 10 0 6 2
10 4 10 3 0 8 -4 11 -10z m322 4 c-3 -3 -12 -4 -19 -1 -8 3 -5 6 6 6 11 1 17
-2 13 -5z m-417 -19 c-6 -8 -18 -11 -27 -8 -12 5 -13 2 -5 -13 25 -46 41 -103
31 -110 -6 -3 -17 2 -24 12 -14 18 -14 18 -15 -3 0 -24 -14 -31 -25 -13 -11
18 -64 11 -75 -10 -21 -39 -38 -24 -32 28 2 26 6 49 8 50 1 2 21 8 44 13 30 7
46 6 56 -2 11 -9 14 -8 14 4 0 21 -25 38 -44 31 -11 -4 -16 -1 -16 11 0 11 6
15 19 10 10 -3 28 -2 40 3 12 4 31 9 42 9 16 2 18 -1 9 -12z m209 -19 c10 -12
8 -13 -8 -9 -12 3 -18 9 -15 14 7 12 10 11 23 -5z m256 8 c9 -4 21 -18 26 -31
5 -14 18 -27 29 -30 14 -4 20 -14 20 -32 -1 -24 -2 -24 -14 -8 -7 9 -18 17
-25 17 -6 0 -11 5 -11 11 0 6 -7 9 -15 5 -10 -4 -15 1 -15 15 0 14 -5 19 -17
17 -10 -2 -17 -10 -15 -16 1 -7 -5 -15 -13 -18 -8 -3 -12 -10 -9 -15 3 -5 -1
-9 -9 -9 -11 0 -13 9 -7 41 10 53 33 69 75 53z m-836 -33 c12 -16 21 -32 21
-34 0 -3 -17 -5 -37 -3 -29 1 -42 -3 -55 -20 -10 -12 -18 -29 -18 -38 0 -25
-19 -18 -26 10 -5 18 -1 29 11 38 17 12 16 13 -6 20 -22 6 -21 8 16 21 22 8
41 19 43 25 7 19 31 10 51 -19z m598 -39 c20 -35 20 -38 4 -66 -20 -35 -71
-54 -84 -31 -11 19 -57 20 -57 1 0 -16 -18 -31 -26 -23 -3 3 -2 21 1 40 5 27
11 34 25 30 10 -3 27 0 39 6 17 9 22 8 31 -9 6 -11 17 -20 26 -20 13 0 13 4
-1 30 -9 17 -23 30 -35 30 -36 0 -34 25 5 46 29 16 50 7 72 -34z m-503 -27 c2
-17 5 -33 5 -37 1 -4 10 -10 22 -13 16 -5 18 -10 8 -21 -6 -8 -17 -14 -25 -14
-15 0 -74 82 -74 102 0 10 3 9 10 -2 8 -13 11 -13 27 2 20 21 20 21 27 -17z
m913 -57 c-4 -8 -8 -4 -12 9 -8 25 -25 21 -25 -5 0 -28 -49 -44 -95 -30 -22 6
-34 13 -27 15 10 4 10 8 1 19 -10 12 -14 11 -26 -5 -7 -12 -20 -18 -28 -15
-18 7 -18 14 -5 49 8 22 13 25 25 15 8 -6 19 -9 25 -5 6 4 17 0 23 -8 18 -22
84 -11 91 15 5 19 7 19 31 -11 15 -17 24 -37 22 -43z m88 62 c-3 -5 -11 -10
-16 -10 -6 0 -7 5 -4 10 3 6 11 10 16 10 6 0 7 -4 4 -10z m-1080 -8 c18 -13
46 -82 33 -82 -16 0 -58 -41 -58 -57 0 -22 -18 -14 -44 20 -31 41 -33 66 -5
101 20 25 53 34 74 18z m383 -47 c-29 -15 -33 -12 -17 14 10 15 16 17 26 9 11
-9 9 -13 -9 -23z m657 15 c-3 -5 -11 -10 -16 -10 -6 0 -7 5 -4 10 3 6 11 10
16 10 6 0 7 -4 4 -10z m-870 -21 c4 -6 5 -12 2 -15 -7 -7 -37 7 -37 17 0 13
27 11 35 -2z m145 -18 c0 -3 3 -16 6 -28 5 -17 2 -23 -9 -23 -8 0 -18 6 -20
13 -3 6 -6 -1 -6 -17 -1 -27 -25 -66 -40 -66 -3 0 -6 13 -7 30 -1 16 3 27 8
24 6 -4 8 2 6 11 -1 10 -18 23 -36 29 -26 9 -30 14 -20 24 16 16 41 15 57 0
10 -11 14 -10 22 4 9 16 39 15 39 -1z m35 9 c3 -5 15 -10 26 -10 10 0 19 -7
19 -15 0 -9 -9 -15 -21 -15 -22 0 -49 22 -49 39 0 14 17 14 25 1z m-177 -42
c18 -18 14 -56 -7 -67 -10 -6 -21 -8 -24 -4 -4 3 -29 -2 -58 -11 -50 -17 -52
-17 -70 3 -46 49 -2 82 122 89 14 1 30 -3 37 -10z m33 -95 c-12 -20 -14 -14
-5 12 4 9 9 14 11 11 3 -2 0 -13 -6 -23z m-66 -13 c-3 -5 -10 -10 -16 -10 -5
0 -9 5 -9 10 0 6 7 10 16 10 8 0 12 -4 9 -10z m124 -35 c6 -8 627 -1847 632
-1874 1 -3 6 12 12 34 7 26 12 349 14 930 3 689 6 893 16 902 18 19 655 19
673 1 11 -12 128 -231 357 -665 72 -139 82 -153 106 -153 22 0 31 9 54 53 14
28 67 129 116 222 50 94 125 240 168 325 43 85 81 159 86 165 4 5 17 22 28 38
l21 27 326 -2 327 -3 3 -1037 2 -1038 -335 0 -335 0 0 370 c0 228 -4 370 -10
370 -5 0 -10 28 -12 63 l-3 62 -217 -430 c-167 -331 -221 -431 -236 -433 -17
-3 -35 26 -113 180 -172 342 -306 603 -328 638 l-21 35 0 -427 0 -428 -714 0
-714 0 -20 58 c-12 31 -35 98 -52 147 -17 50 -40 109 -51 133 l-21 42 -309 0
-309 0 -13 -32 c-7 -18 -38 -104 -68 -190 l-54 -158 -859 0 c-1017 0 -1037 2
-1291 101 -147 57 -254 127 -360 234 -194 197 -266 391 -265 725 0 120 4 162
25 245 90 363 365 623 767 725 182 47 223 50 795 50 l543 0 5 -22 c3 -13 4
-147 3 -298 l-3 -275 -500 -6 c-425 -4 -511 -8 -575 -22 -153 -36 -253 -105
-289 -200 -59 -159 -44 -369 34 -471 94 -124 251 -176 535 -179 l145 -2 5 197
c4 143 9 201 18 210 10 10 84 14 316 16 l303 3 7 -23 c3 -13 6 -153 6 -313 l1
-290 19 45 c10 25 19 39 19 33 2 -30 20 -9 38 45 53 153 76 226 76 239 0 7 4
13 9 13 4 0 8 6 8 14 0 8 58 189 128 403 71 213 162 489 202 613 40 124 80
235 88 247 l14 23 407 2 c562 4 610 3 620 -7z m4901 -295 l0 -300 -560 0 -560
0 0 -120 c0 -102 2 -120 16 -120 8 0 22 -7 30 -15 13 -13 65 -15 345 -15 l329
0 0 -170 0 -170 -360 0 -360 0 0 -120 c0 -111 1 -120 19 -120 10 0 21 -7 25
-15 5 -13 84 -15 630 -15 608 0 626 1 636 19 7 13 10 259 10 728 0 538 3 712
12 721 9 9 186 12 733 12 702 0 723 -1 805 -21 46 -12 105 -31 130 -42 25 -11
47 -21 50 -21 20 -4 95 -58 143 -105 111 -106 156 -213 172 -406 22 -253 -94
-452 -328 -564 -56 -27 -131 -57 -167 -67 -36 -9 -69 -20 -74 -25 -4 -4 20
-44 55 -89 86 -111 85 -110 93 -110 4 0 14 -7 22 -15 13 -13 61 -15 310 -15
l294 0 0 -300 0 -300 -70 0 -70 0 -411 225 c-226 124 -418 225 -426 225 -22 0
-53 -29 -53 -50 0 -9 27 -83 60 -165 33 -82 58 -150 57 -152 -2 -1 -77 75
-168 169 -90 95 -221 231 -291 303 l-128 130 0 -342 0 -343 -1370 0 -1370 0 0
1024 c0 563 3 1031 6 1040 6 14 94 16 895 16 l889 0 0 -300z m2185 -1835 c270
-147 672 -368 895 -490 223 -122 482 -264 577 -316 95 -52 169 -97 165 -101
-4 -3 -137 -63 -297 -132 -159 -69 -296 -134 -302 -143 -27 -35 -26 -36 241
-318 264 -278 316 -333 454 -480 l132 -140 -53 -53 c-28 -30 -83 -81 -121
-115 l-68 -61 -47 50 c-54 57 -171 185 -406 444 -379 415 -366 403 -407 392
-9 -2 -81 -108 -160 -236 -78 -127 -163 -264 -189 -304 l-47 -73 -30 73 c-40
97 -174 428 -435 1078 -119 294 -279 692 -356 884 -78 192 -141 354 -141 359
0 4 24 -5 53 -21 28 -16 273 -150 542 -297z m-3870 -616 c51 -14 110 -73 124
-124 15 -55 15 -935 0 -990 -14 -51 -73 -110 -124 -124 -56 -15 -2824 -15
-2880 0 -51 14 -110 73 -124 124 -15 54 -15 935 0 988 14 51 64 104 114 122
34 12 260 14 1445 15 995 0 1417 -3 1445 -11z"/>
<path d="M6444 8455 c-6 -25 17 -65 37 -65 17 0 39 33 39 61 0 26 -3 29 -35
29 -29 0 -36 -4 -41 -25z"/>
<path d="M6337 8393 c-4 -3 -7 -19 -7 -34 0 -20 6 -28 25 -33 49 -12 85 30 53
62 -13 13 -60 16 -71 5z"/>
<path d="M6520 8355 c-17 -20 -6 -43 26 -56 38 -14 54 -5 54 30 0 40 -53 58
-80 26z"/>
<path d="M7519 8339 c-21 -21 -20 -59 3 -86 15 -19 62 -16 81 5 54 59 -28 137
-84 81z"/>
<path d="M6433 8292 c-19 -12 -28 -63 -12 -73 29 -18 58 -10 65 18 11 42 -21
76 -53 55z"/>
<path d="M6800 8260 c0 -16 7 -20 35 -20 39 0 46 14 16 30 -31 16 -51 12 -51
-10z"/>
<path d="M7372 8234 c-44 -31 -16 -104 40 -104 23 0 58 35 58 58 0 24 -36 62
-58 62 -10 0 -28 -7 -40 -16z"/>
<path d="M7642 8194 c-27 -19 -29 -64 -4 -87 56 -51 130 26 77 79 -28 28 -42
30 -73 8z"/>
<path d="M6632 8124 c-58 -40 -69 -125 -23 -176 27 -30 35 -33 86 -33 51 0 59
3 86 33 22 25 29 42 29 75 0 51 -18 79 -64 101 -43 20 -85 20 -114 0z"/>
<path d="M7482 8080 c-27 -26 -28 -54 -2 -80 25 -25 62 -26 83 -2 23 25 21 58
-3 82 -26 26 -50 25 -78 0z"/>
<path d="M7175 8050 c-57 -23 -86 -95 -61 -153 36 -88 169 -88 211 -1 19 40
19 58 0 94 -31 59 -92 84 -150 60z"/>
<path d="M9115 8090 c-13 -15 -15 -24 -8 -31 8 -8 13 -5 18 10 3 12 11 21 16
21 5 0 9 5 9 10 0 16 -15 12 -35 -10z"/>
<path d="M8850 7893 c-28 -11 -55 -60 -27 -50 6 2 11 10 10 16 -4 15 14 14 19
0 3 -9 12 -9 32 -3 27 9 28 11 12 27 -18 18 -22 19 -46 10z"/>
<path d="M7876 6969 c-64 -176 -100 -276 -180 -497 -36 -100 -66 -185 -66
-187 0 -3 8 -5 19 -5 10 0 24 -7 31 -15 17 -21 518 -23 526 -2 5 15 -219 696
-258 786 l-24 53 -48 -133z"/>
<path d="M14310 6865 c0 -185 1 -195 19 -195 10 0 21 -7 25 -15 9 -23 520 -22
569 1 51 24 71 67 71 144 -1 96 -11 133 -52 189 -49 65 -75 71 -369 71 l-263
0 0 -195z"/>
<path d="M8840 4180 l0 -450 1395 0 1395 0 0 450 0 450 -1395 0 -1395 0 0
-450z m270 270 l0 -90 -90 0 -90 0 0 90 0 90 90 0 90 0 0 -90z m270 0 l0 -90
-90 0 -90 0 0 90 0 90 90 0 90 0 0 -90z m270 0 l0 -90 -90 0 -90 0 0 90 0 90
90 0 90 0 0 -90z m270 0 l0 -90 -90 0 -90 0 0 90 0 90 90 0 90 0 0 -90z m270
0 l0 -90 -90 0 -90 0 0 90 0 90 90 0 90 0 0 -90z m270 0 l0 -90 -90 0 -90 0 0
90 0 90 90 0 90 0 0 -90z m270 0 l0 -90 -90 0 -90 0 0 90 0 90 90 0 90 0 0
-90z m270 0 l0 -90 -90 0 -90 0 0 90 0 90 90 0 90 0 0 -90z m270 0 l0 -90 -90
0 -90 0 0 90 0 90 90 0 90 0 0 -90z m270 0 l0 -90 -90 0 -90 0 0 90 0 90 90 0
90 0 0 -90z m-2340 -270 l0 -90 -135 0 -135 0 0 90 0 90 135 0 135 0 0 -90z
m270 0 l0 -90 -90 0 -90 0 0 90 0 90 90 0 90 0 0 -90z m270 0 l0 -90 -90 0
-90 0 0 90 0 90 90 0 90 0 0 -90z m270 0 l0 -90 -90 0 -90 0 0 90 0 90 90 0
90 0 0 -90z m270 0 l0 -90 -90 0 -90 0 0 90 0 90 90 0 90 0 0 -90z m270 0 l0
-90 -90 0 -90 0 0 90 0 90 90 0 90 0 0 -90z m270 0 l0 -90 -90 0 -90 0 0 90 0
90 90 0 90 0 0 -90z m270 0 l0 -90 -90 0 -90 0 0 90 0 90 90 0 90 0 0 -90z
m450 0 l0 -90 -180 0 -180 0 0 90 0 90 180 0 180 0 0 -90z m-2430 -270 l0 -90
-90 0 -90 0 0 90 0 90 90 0 90 0 0 -90z m270 0 l0 -90 -90 0 -90 0 0 90 0 90
90 0 90 0 0 -90z m1620 0 l0 -90 -765 0 -765 0 0 90 0 90 765 0 765 0 0 -90z
m270 0 l0 -90 -90 0 -90 0 0 90 0 90 90 0 90 0 0 -90z m270 0 l0 -90 -90 0
-90 0 0 90 0 90 90 0 90 0 0 -90z"/>
</g>
</svg>
