<?xml version="1.0" standalone="no"?>
<!DOCTYPE svg PUBLIC "-//W3C//DTD SVG 20010904//EN"
 "http://www.w3.org/TR/2001/REC-SVG-20010904/DTD/svg10.dtd">
<svg version="1.0" xmlns="http://www.w3.org/2000/svg"
 width="1200.000000pt" height="675.000000pt" viewBox="0 0 1200.000000 675.000000"
 preserveAspectRatio="xMidYMid meet"  >

<g transform="translate(0.000000,675.000000) scale(0.100000,-0.100000)"
fill="#fff" stroke="none">
<path d="M4125 4126 c-63 -29 -87 -56 -120 -129 -26 -60 -80 -117 -123 -129
-20 -6 -33 0 -62 25 -21 18 -42 42 -48 53 -27 56 -74 94 -140 114 -82 26 -133
21 -194 -20 -63 -42 -94 -104 -102 -206 -10 -133 24 -210 123 -273 l50 -33 -6
-46 c-4 -33 -14 -55 -33 -72 -15 -14 -45 -63 -68 -109 l-42 -83 0 -169 c0
-161 1 -172 28 -236 15 -38 43 -83 63 -103 19 -19 45 -52 57 -72 29 -46 95
-80 152 -76 23 1 44 -3 49 -10 10 -17 76 -42 110 -42 16 0 48 -9 72 -20 24
-11 58 -20 75 -20 17 0 48 -7 67 -15 46 -19 157 -19 202 -1 27 12 42 13 66 4
24 -8 44 -8 83 2 73 19 186 17 217 -3 14 -9 40 -22 59 -28 19 -6 57 -22 84
-36 41 -22 56 -24 100 -19 28 4 60 7 71 6 136 -6 157 -8 173 -23 10 -9 34 -23
55 -32 26 -11 38 -23 43 -43 3 -15 12 -47 20 -71 10 -33 14 -106 14 -288 l0
-244 33 -30 c61 -58 64 -58 308 -55 123 2 437 4 696 5 l473 1 19 38 c39 77 46
160 41 487 -3 206 5 247 64 313 15 17 30 22 67 22 30 0 64 8 88 21 39 20 51
21 358 16 193 -2 334 -9 358 -15 22 -7 101 -15 175 -19 l134 -8 1 -66 c0 -56
5 -72 28 -103 16 -20 41 -43 57 -51 18 -9 37 -32 49 -59 10 -24 33 -54 50 -67
20 -15 33 -35 37 -58 13 -70 60 -127 122 -146 15 -4 30 -23 42 -48 10 -23 32
-55 49 -71 28 -27 31 -35 31 -91 0 -83 30 -140 90 -172 24 -13 58 -23 77 -23
19 0 45 -7 58 -16 23 -15 68 -20 125 -15 14 1 45 -3 70 -9 43 -11 72 -25 199
-92 121 -63 269 -16 299 96 13 45 5 161 -13 196 -8 16 -15 41 -15 55 0 38 -27
96 -60 130 l-30 31 21 59 c20 57 20 60 4 127 -22 88 -49 127 -110 158 -28 14
-65 35 -82 48 -17 12 -34 22 -39 22 -4 0 -21 11 -38 23 -17 13 -53 32 -81 42
-27 10 -61 28 -75 40 -33 30 -64 45 -90 45 -12 0 -39 15 -60 33 l-40 32 0 103
c0 133 -20 204 -69 252 -20 19 -45 40 -55 45 -17 10 -19 24 -18 177 1 91 6
178 12 192 18 48 11 94 -25 166 -46 90 -83 119 -172 130 -88 11 -363 16 -513
10 -25 -2 -88 3 -140 9 -52 7 -129 10 -170 7 -91 -6 -86 -6 -187 0 -56 4 -100
1 -141 -10 -42 -11 -70 -12 -92 -6 -17 5 -116 9 -219 9 -149 0 -193 3 -216 15
-38 20 -107 20 -144 1 -16 -8 -31 -12 -33 -9 -3 2 -71 5 -151 6 -133 0 -150
-1 -193 -22 -63 -31 -121 -90 -129 -132 -4 -18 -20 -48 -36 -65 -32 -37 -39
-40 -39 -18 0 17 -41 102 -91 190 -29 49 -44 64 -88 86 -29 15 -61 40 -71 55
-9 16 -29 40 -44 53 -19 18 -26 34 -26 60 0 80 -72 168 -160 195 -25 8 -64 24
-87 35 -23 12 -48 19 -55 16 -7 -3 -31 4 -53 15 -47 24 -105 26 -145 5 -57
-30 -117 -75 -159 -120 l-42 -45 -27 31 c-15 18 -39 49 -54 70 -36 49 -84 85
-133 97 -22 6 -101 10 -175 10 -103 -1 -146 2 -183 15 -74 26 -199 23 -262 -7z
m165 -29 c17 -9 27 -23 30 -47 5 -35 6 -35 75 -47 39 -7 104 -17 145 -23 41
-5 89 -12 105 -15 26 -5 32 -2 45 27 12 26 22 34 48 36 44 4 82 -21 82 -54 0
-14 10 -40 23 -57 20 -29 23 -47 27 -177 3 -80 4 -151 2 -157 -3 -9 -31 -13
-97 -13 l-93 0 -15 43 c-9 27 -19 40 -28 38 -8 -3 -32 -6 -55 -9 -35 -3 -44 0
-66 26 -35 42 -77 49 -133 22 -48 -23 -76 -21 -111 11 -20 19 -21 19 -54 -28
-52 -72 -66 -83 -106 -83 -43 0 -94 45 -94 83 0 13 16 76 35 138 19 63 35 121
35 130 0 9 23 40 50 69 28 29 50 58 50 66 0 31 57 43 100 21z m988 -107 c46
-28 40 -34 -10 -9 -51 26 -56 29 -37 29 8 0 29 -9 47 -20z m-1619 -10 c40 -20
85 -67 95 -98 4 -10 20 -28 36 -40 33 -25 40 -62 15 -82 -19 -15 -15 -20 -60
60 -21 36 -47 76 -59 88 -94 105 -258 39 -258 -104 0 -36 10 -62 47 -126 34
-59 44 -83 35 -92 -18 -18 -64 14 -70 49 -3 17 -19 56 -34 89 -24 48 -27 66
-22 105 17 131 161 210 275 151z m1716 -80 c3 -5 -3 -10 -15 -10 -12 0 -18 5
-15 10 3 6 10 10 15 10 5 0 12 -4 15 -10z m133 -15 c2 -18 1 -18 -10 -4 -7 9
-19 14 -25 12 -18 -6 -16 -23 2 -23 8 0 15 -7 15 -15 0 -18 -9 -19 -44 -5 -14
5 -26 16 -26 24 0 10 6 13 15 10 11 -4 13 -2 9 9 -4 12 2 15 28 14 24 -2 34
-7 36 -22z m-174 -17 c-2 -4 0 -9 6 -13 5 -3 10 -1 10 5 0 6 5 8 10 5 6 -3 10
-1 10 6 0 7 3 10 6 6 11 -11 -7 -47 -25 -47 -24 0 -41 20 -41 47 0 20 2 22 14
11 8 -7 12 -16 10 -20z m-73 5 c1 -17 2 -17 6 0 2 9 11 17 19 17 12 0 12 -4 4
-20 -9 -17 -7 -22 15 -32 28 -13 31 -21 12 -37 -10 -8 -19 -7 -33 4 -19 14
-19 14 1 15 16 0 17 2 6 9 -10 6 -18 5 -25 -4 -6 -7 -27 -16 -46 -19 -84 -14
-120 -16 -121 -6 -1 5 -3 15 -4 20 -1 6 -3 15 -4 21 0 5 -6 7 -11 4 -6 -3 -7
-17 -4 -31 5 -19 3 -23 -10 -18 -9 3 -13 11 -9 17 4 6 -2 8 -15 5 -23 -6 -27
-1 -14 20 5 8 16 10 27 6 11 -5 16 -4 12 3 -3 5 -1 10 6 11 7 0 46 7 87 15
100 20 100 20 101 0z m153 -20 c10 -61 8 -73 -13 -73 -11 0 -23 5 -26 10 -10
17 -24 2 -18 -20 3 -12 0 -20 -7 -20 -7 0 -10 7 -6 16 5 13 2 15 -15 11 -21
-6 -21 -5 2 19 24 26 54 32 62 12 3 -7 6 -3 6 10 1 12 -3 22 -8 22 -4 0 -6 11
-3 25 7 36 18 31 26 -12z m136 -3 c0 -4 -11 -11 -25 -14 -14 -4 -24 -10 -22
-15 1 -5 -7 -17 -18 -26 -11 -9 -13 -14 -5 -10 9 4 7 0 -4 -9 -10 -8 -15 -20
-10 -27 5 -8 3 -10 -5 -5 -8 5 -14 0 -18 -13 -3 -12 -11 -20 -17 -18 -6 3 -9
11 -7 18 2 8 4 19 4 26 0 7 3 12 6 11 17 -2 31 3 29 10 -5 15 64 91 78 85 8
-3 14 -9 14 -13z m-1806 -62 l36 -63 -22 -18 c-21 -17 -22 -17 -40 10 -10 15
-28 46 -40 67 -19 38 -20 40 -2 53 10 7 21 13 25 13 4 0 24 -28 43 -62z m1806
11 c11 -19 10 -20 -9 -9 -12 6 -21 15 -21 20 0 18 19 11 30 -11z m-288 -11
c-7 -7 -12 -8 -12 -2 0 14 12 26 19 19 2 -3 -1 -11 -7 -17z m-218 6 c9 -4 16
-18 16 -33 0 -24 -3 -27 -37 -27 -20 0 -38 -5 -41 -12 -2 -7 1 -12 8 -12 6 0
8 -5 5 -10 -10 -16 -25 -1 -25 26 0 14 6 24 14 24 8 0 17 11 20 25 7 26 13 29
40 19z m196 -10 c0 -8 -4 -12 -10 -9 -5 3 -19 1 -30 -5 -22 -12 -27 -1 -8 18
17 17 48 15 48 -4z m-253 -16 c-3 -8 -6 -5 -6 6 -1 11 2 17 5 13 3 -3 4 -12 1
-19z m178 12 c3 -5 -3 -10 -15 -10 -12 0 -24 -9 -29 -22 -8 -21 -8 -21 -13 6
-4 20 -2 26 8 22 7 -3 16 -1 19 4 8 13 22 13 30 0z m135 -20 c9 -16 8 -19 -6
-13 -12 4 -15 3 -10 -5 4 -7 2 -12 -3 -12 -6 0 -11 6 -11 13 0 8 -3 8 -9 -2
-6 -8 -19 -12 -35 -9 -15 3 -29 1 -32 -3 -8 -14 -24 -11 -24 5 0 14 55 30 70
21 4 -3 10 2 14 10 8 21 33 19 46 -5z m273 3 c-7 -2 -19 -2 -25 0 -7 3 -2 5
12 5 14 0 19 -2 13 -5z m-418 -23 c3 -6 -1 -7 -9 -4 -18 7 -21 14 -7 14 6 0
13 -4 16 -10z m402 -17 c11 -30 7 -53 -8 -53 -5 0 -9 11 -9 24 0 14 -5 28 -11
32 -9 5 -10 -3 -5 -29 7 -38 -9 -61 -25 -36 -17 26 -10 64 14 75 33 17 34 16
44 -13z m-1994 -45 c33 -58 35 -64 20 -75 -28 -21 -36 -15 -75 50 -26 45 -33
66 -26 75 21 25 44 11 81 -50z m287 -8 c0 -8 -162 -110 -175 -110 -3 0 -5 6
-5 13 0 16 50 46 67 40 11 -4 93 42 93 53 0 3 -7 18 -15 33 -8 16 -11 31 -8
35 7 6 43 -48 43 -64z m1526 55 c4 -8 10 -12 15 -9 5 3 6 -2 3 -10 -4 -11 -14
-14 -29 -10 -13 3 -25 2 -28 -3 -3 -5 4 -10 15 -10 24 -2 24 -2 32 -29 5 -18
2 -21 -20 -20 -31 1 -46 26 -17 27 15 0 14 2 -4 9 -22 9 -32 48 -16 63 12 13
44 7 49 -8z m-116 -30 c-17 -21 -5 -32 16 -14 14 11 18 10 30 -6 22 -30 13
-50 -21 -49 -17 0 -33 -4 -37 -10 -5 -7 -8 -5 -8 5 0 20 34 31 49 16 7 -7 10
-4 9 9 -2 16 -8 19 -40 16 -44 -5 -47 1 -16 33 25 26 39 25 18 0z m-54 -16 c1
-17 7 -35 15 -40 8 -5 9 -9 3 -9 -6 0 -14 3 -18 7 -13 13 -48 10 -82 -7 -30
-16 -32 -18 -13 -23 12 -3 19 -11 17 -18 -6 -18 -68 -33 -80 -21 -13 13 -2 32
18 32 18 0 18 5 -1 34 -14 21 -14 24 0 29 10 5 15 0 15 -14 0 -30 44 -22 48 9
3 16 10 22 28 22 15 0 24 6 24 15 0 30 25 14 26 -16z m-161 -25 c13 -32 13
-36 -4 -53 -14 -14 -22 -16 -30 -8 -17 17 -13 45 6 56 10 5 14 13 10 18 -5 4
-18 -3 -29 -17 l-20 -25 3 25 c4 26 28 52 42 43 4 -2 14 -20 22 -39z m397 29
c25 -23 23 -37 -4 -19 -16 11 -25 13 -35 4 -10 -8 -13 -7 -13 4 0 31 24 37 52
11z m67 -57 c0 -7 -2 -6 -6 1 -3 10 -8 9 -20 -3 -19 -18 -47 -15 -51 7 -2 13
3 15 23 12 16 -4 25 -1 25 7 0 10 3 10 15 0 8 -7 15 -18 14 -24z m-89 9 c0 -8
-4 -15 -10 -15 -5 0 -10 7 -10 15 0 8 5 15 10 15 6 0 10 -7 10 -15z m-202 -14
c7 -1 10 -6 6 -12 -4 -7 -10 -7 -16 -1 -11 11 -38 -8 -38 -27 0 -5 -4 -12 -9
-16 -6 -3 -8 6 -5 21 3 15 1 23 -5 20 -5 -4 -12 -2 -15 3 -6 10 27 19 54 15 8
-1 21 -3 28 -3z m-818 -220 l0 -139 -247 -4 c-270 -5 -310 -12 -365 -65 -33
-32 -52 -112 -42 -178 16 -109 88 -156 250 -163 l104 -5 0 96 c0 77 3 96 16
101 9 3 76 6 150 6 l134 0 0 -147 c0 -138 1 -146 16 -127 9 11 72 187 138 390
l122 369 245 3 245 2 143 -427 c79 -236 147 -435 152 -443 10 -18 10 -48 9
446 0 215 2 399 6 408 5 14 27 16 163 16 l157 0 101 -192 c56 -106 108 -194
115 -196 8 -1 53 73 115 190 l101 193 156 3 156 3 0 -491 0 -490 -155 0 -155
0 -1 173 c-2 263 3 262 -115 30 -56 -109 -105 -197 -110 -197 -5 1 -54 89
-109 197 l-100 195 -3 -199 -2 -199 -334 0 -334 0 -32 90 -32 90 -149 0 -148
0 -19 -52 c-11 -29 -25 -70 -32 -91 l-12 -38 -431 3 c-478 5 -485 5 -623 73
-88 43 -163 120 -207 212 -31 66 -32 72 -32 204 l0 135 37 75 c47 96 121 167
221 215 117 55 169 62 470 63 l267 1 0 -139z m3060 -1 l0 -140 -260 0 -260 0
0 -54 c0 -32 5 -58 13 -65 8 -6 75 -12 168 -13 l154 -3 3 -77 3 -78 -171 0
-170 0 0 -51 c0 -38 5 -55 18 -65 24 -18 572 -20 590 -2 9 9 12 101 12 351 l0
338 363 -3 c399 -4 414 -6 491 -70 56 -46 84 -98 96 -176 25 -156 -49 -269
-207 -319 -29 -9 -53 -20 -53 -23 0 -18 74 -101 94 -106 14 -3 79 -4 145 -2
l121 3 0 -142 0 -143 -28 0 c-17 0 -107 43 -227 109 -110 60 -205 107 -212
104 -19 -7 -16 -25 12 -95 14 -34 23 -63 21 -65 -2 -2 -61 58 -132 133 l-129
136 -5 -158 -5 -159 -640 0 -640 0 -3 475 c-1 261 0 481 3 488 3 9 97 12 420
12 l415 0 0 -140z m1354 -1040 l447 -245 -53 -23 c-29 -13 -95 -42 -146 -64
-73 -32 -92 -45 -90 -59 2 -9 73 -91 159 -181 85 -90 172 -181 192 -204 l36
-41 -52 -51 c-29 -29 -55 -52 -58 -52 -3 0 -90 92 -193 205 -103 113 -195 205
-204 205 -11 0 -47 -49 -102 -140 -47 -77 -87 -140 -90 -140 -3 0 -53 121
-112 268 -59 147 -156 389 -216 537 -60 149 -112 280 -116 293 -7 22 -2 20 71
-20 43 -24 280 -153 527 -288z m-2103 -136 l24 -26 0 -239 0 -239 -28 -27 -27
-28 -653 -3 c-358 -2 -667 0 -686 3 -18 4 -44 17 -57 30 -24 24 -24 24 -24
265 l0 241 25 24 24 25 689 0 689 0 24 -26z"  />
<path d="M4223 3964 c-9 -23 11 -38 26 -20 13 16 7 36 -10 36 -5 0 -12 -7 -16
-16z" />
<path d="M4170 3920 c0 -15 5 -20 18 -18 9 2 17 10 17 18 0 8 -8 16 -17 18
-13 2 -18 -3 -18 -18z"/>
<path d="M4257 3914 c-9 -10 2 -24 19 -24 8 0 14 7 14 15 0 15 -21 21 -33 9z" />
<path d="M4724 3906 c-9 -24 4 -48 23 -44 12 2 18 12 18 28 0 29 -32 41 -41
16z" />
<path d="M4210 3870 c0 -11 7 -20 15 -20 8 0 15 9 15 20 0 11 -7 20 -15 20 -8
0 -15 -9 -15 -20z" />
<path d="M4390 3870 c0 -5 7 -10 16 -10 8 0 12 5 9 10 -3 6 -10 10 -16 10 -5
0 -9 -4 -9 -10z" />
<path d="M4654 3855 c-9 -21 3 -45 21 -45 21 0 30 27 15 45 -16 19 -29 19 -36
0z" />
<path d="M4780 3835 c-15 -18 -6 -45 13 -45 8 0 20 7 27 15 10 12 10 18 0 30
-16 19 -24 19 -40 0z" />
<path d="M4317 3812 c-10 -2 -22 -15 -28 -29 -13 -36 12 -73 49 -73 35 0 52
16 52 51 0 37 -33 60 -73 51z" />
<path d="M4711 3790 c-19 -11 -9 -45 14 -45 13 0 21 8 23 21 3 23 -17 37 -37
24z" />
<path d="M4552 3764 c-27 -18 -29 -55 -4 -77 24 -22 55 -21 75 1 22 25 21 48
-3 72 -24 24 -38 25 -68 4z" />
<path d="M4845 3139 c-56 -157 -66 -192 -54 -200 17 -11 259 -12 259 -1 0 11
-119 362 -128 378 -5 9 -34 -58 -77 -177z" />
<path d="M7910 3221 c0 -65 4 -92 14 -101 11 -8 54 -11 146 -8 117 3 133 5
146 22 31 44 6 148 -41 166 -15 6 -80 10 -146 10 l-119 0 0 -89z" />
<path d="M5340 1960 l0 -210 655 0 655 0 0 210 0 210 -655 0 -655 0 0 -210z
m130 125 l0 -45 -40 0 -40 0 0 45 0 45 40 0 40 0 0 -45z m130 0 l0 -45 -45 0
-45 0 0 45 0 45 45 0 45 0 0 -45z m120 0 l0 -45 -40 0 -40 0 0 45 0 45 40 0
40 0 0 -45z m130 0 l0 -45 -40 0 -40 0 0 45 0 45 40 0 40 0 0 -45z m130 0 l0
-45 -45 0 -45 0 0 45 0 45 45 0 45 0 0 -45z m120 0 l0 -45 -40 0 -40 0 0 45 0
45 40 0 40 0 0 -45z m130 0 l0 -45 -40 0 -40 0 0 45 0 45 40 0 40 0 0 -45z
m130 0 l0 -45 -45 0 -45 0 0 45 0 45 45 0 45 0 0 -45z m120 0 l0 -45 -40 0
-40 0 0 45 0 45 40 0 40 0 0 -45z m130 0 l0 -45 -40 0 -40 0 0 45 0 45 40 0
40 0 0 -45z m-1100 -125 l0 -40 -60 0 -60 0 0 40 0 40 60 0 60 0 0 -40z m130
0 l0 -40 -45 0 -45 0 0 40 0 40 45 0 45 0 0 -40z m130 0 l0 -40 -45 0 -45 0 0
40 0 40 45 0 45 0 0 -40z m120 0 l0 -40 -40 0 -40 0 0 40 0 40 40 0 40 0 0
-40z m130 0 l0 -40 -45 0 -45 0 0 40 0 40 45 0 45 0 0 -40z m130 0 l0 -40 -45
0 -45 0 0 40 0 40 45 0 45 0 0 -40z m120 0 l0 -40 -40 0 -40 0 0 40 0 40 40 0
40 0 0 -40z m130 0 l0 -40 -45 0 -45 0 0 40 0 40 45 0 45 0 0 -40z m210 0 l0
-40 -85 0 -85 0 0 40 0 40 85 0 85 0 0 -40z m-1140 -130 l0 -40 -40 0 -40 0 0
40 0 40 40 0 40 0 0 -40z m130 0 l0 -40 -45 0 -45 0 0 40 0 40 45 0 45 0 0
-40z m760 0 l0 -40 -360 0 -360 0 0 40 0 40 360 0 360 0 0 -40z m120 0 l0 -40
-40 0 -40 0 0 40 0 40 40 0 40 0 0 -40z m130 0 l0 -40 -40 0 -40 0 0 40 0 40
40 0 40 0 0 -40z" />
</g>
</svg>
